<svg width="35" height="35" viewBox="0 0 35 35" fill="none" xmlns="http://www.w3.org/2000/svg">
<rect width="34.1306" height="34.1306" rx="13.1271" fill="#FFDECF"/>
<path d="M19.1606 27.5759C19.1606 26.0537 19.1606 23.1109 19.1606 21.3193H21.96C22.0945 21.3193 22.2236 21.2659 22.3187 21.1707C22.4139 21.0756 22.4673 20.9465 22.4673 20.8119V17.7116C22.4673 17.5771 22.4139 17.448 22.3187 17.3529C22.2236 17.2577 22.0945 17.2043 21.96 17.2043H19.1606C19.1606 15.9935 19.1606 16.137 19.1606 15.3812C19.1615 15.0542 19.2921 14.7409 19.5236 14.51C19.7552 14.2791 20.0688 14.1494 20.3958 14.1494H22.4499V10.9477C22.4489 10.7079 22.3531 10.4783 22.1832 10.3091C22.0133 10.1399 21.7834 10.0449 21.5436 10.0449H18.9786C18.4396 10.0449 17.9059 10.1511 17.4079 10.3573C16.9099 10.5636 16.4574 10.8659 16.0763 11.2471C15.6952 11.6282 15.3928 12.0807 15.1866 12.5787C14.9803 13.0767 14.8741 13.6104 14.8741 14.1494C14.8741 14.1494 14.8286 14.7443 14.8006 17.2043H12.0922C11.9419 17.2043 11.7977 17.264 11.6914 17.3703C11.5851 17.4766 11.5254 17.6208 11.5254 17.7711V20.7524C11.5249 20.827 11.5393 20.9009 11.5676 20.9699C11.5959 21.0389 11.6376 21.1016 11.6903 21.1543C11.7431 21.2071 11.8058 21.2488 11.8747 21.2771C11.9437 21.3054 12.0177 21.3198 12.0922 21.3193H14.7691C14.7691 23.1214 14.7691 25.7108 14.8181 27.3064M14.8251 27.275C12.4494 26.6295 10.3526 25.2191 8.85921 23.262C7.36577 21.3049 6.55892 18.9102 6.5635 16.4484C6.5635 13.4787 7.74322 10.6306 9.84314 8.53064C11.9431 6.43071 14.7912 5.25098 17.7609 5.25098C20.7307 5.25098 23.5788 6.43071 25.6787 8.53064C27.7787 10.6306 28.9584 13.4787 28.9584 16.4484C28.9602 19.177 27.9656 21.8124 26.1615 23.8594C24.3573 25.9065 21.8678 27.2243 19.1606 27.5654" stroke="#E95322" stroke-width="1.42515" stroke-linecap="round" stroke-linejoin="round"/>
</svg>
