<svg width="210" height="187" viewBox="0 0 210 187" fill="none" xmlns="http://www.w3.org/2000/svg">
<path d="M191.573 95.0341C205.451 80.2062 209.851 57.2115 202.429 38.3076C195.007 19.4036 176.137 5.54541 155.878 4.12056C125.171 1.96058 93.2106 31.0723 91.9393 61.8316C91.6283 69.354 93.6982 77.8855 100.238 81.6159C106.325 85.0879 114.633 82.866 119.199 77.5503C123.765 72.2347 124.914 64.5728 123.475 57.7145C122.036 50.8562 118.293 44.6905 113.995 39.1558C99.4869 20.4732 79.3632 2.34508 54.1217 4.12056C33.8632 5.54577 14.9931 19.4036 7.57087 38.3076C0.148613 57.2115 4.54928 80.2062 18.4266 95.0341" stroke="#FF642F" stroke-width="6.18942" stroke-miterlimit="10" stroke-linecap="round" stroke-linejoin="round"/>
<path d="M133.79 159.779L113.257 179.754C108.738 184.15 101.496 183.986 97.1812 179.389C91.3888 173.217 83.5972 165.025 78.2056 159.779" stroke="#FF642F" stroke-width="6.18942" stroke-miterlimit="10" stroke-linecap="round" stroke-linejoin="round"/>
<path d="M60.1721 140.632C68.6964 132.69 66.608 116.594 55.5075 104.679C44.407 92.7642 28.498 89.5435 19.9737 97.4853C11.4494 105.427 13.5378 121.524 24.6383 133.439C35.7388 145.353 51.6478 148.574 60.1721 140.632Z" stroke="#FF642F" stroke-width="6.18942" stroke-miterlimit="10" stroke-linecap="round" stroke-linejoin="round"/>
<path d="M187.221 101.035L158.85 134.015" stroke="#FF642F" stroke-width="6.18942" stroke-miterlimit="10" stroke-linecap="round" stroke-linejoin="round"/>
<path d="M147.73 119.117L169.102 96.4805C179.807 86.9033 205.789 106.548 194.144 121.745L172.982 144.16" stroke="#FF642F" stroke-width="6.18942" stroke-miterlimit="10" stroke-linecap="round" stroke-linejoin="round"/>
</svg>
