<svg width="9" height="9" viewBox="0 0 9 9" fill="none" xmlns="http://www.w3.org/2000/svg">
<path d="M6.00496 2.22964L5.15074 1.08381C5.0549 0.956149 4.93214 0.85284 4.79195 0.781792C4.65176 0.710744 4.49778 0.673828 4.34174 0.673828C4.18569 0.673828 4.03171 0.710744 3.89152 0.781792C3.75133 0.85284 3.62866 0.956149 3.53282 1.08381L2.6786 2.22964C2.5586 2.39109 2.39687 2.51391 2.2122 2.58384L0.898426 3.07442C0.748433 3.12742 0.612353 3.21577 0.500848 3.3325C0.389343 3.44923 0.305427 3.59115 0.255761 3.74715C0.206096 3.90315 0.191976 4.06894 0.214552 4.23154C0.237128 4.39414 0.295806 4.54909 0.385896 4.68423L1.17179 5.88321C1.27984 6.05196 1.33912 6.24923 1.34264 6.45174L1.38701 7.89864C1.3903 8.0625 1.43017 8.22336 1.50338 8.36863C1.5766 8.51389 1.68124 8.63959 1.80912 8.73597C1.937 8.83235 2.0846 8.89679 2.24048 8.92419C2.39636 8.95159 2.55625 8.94121 2.70763 8.89392L4.05052 8.49017C4.23849 8.43315 4.43822 8.43315 4.6262 8.49017L5.96909 8.89392C6.12047 8.94121 6.28035 8.95159 6.43624 8.92419C6.59212 8.89679 6.73972 8.83235 6.8676 8.73597C6.99548 8.63959 7.10011 8.51389 7.17333 8.36863C7.24655 8.22336 7.28641 8.0625 7.2897 7.89864L7.33408 6.45174C7.33871 6.24942 7.3979 6.05246 7.50492 5.88321L8.29082 4.68423C8.37934 4.54915 8.43687 4.39489 8.45908 4.23322C8.48129 4.07155 8.46758 3.9068 8.41895 3.75147C8.37033 3.59615 8.28809 3.45438 8.17854 3.33704C8.06898 3.2197 7.93497 3.12987 7.7868 3.07442L6.47136 2.58384C6.28668 2.51391 6.12496 2.39109 6.00496 2.22964Z" fill="#F4BA1B"/>
</svg>
